<svg preserveAspectRatio="none" overflow="visible" style="display: block;" width="66.2292" height="66.2331" viewBox="0 0 66.2292 66.2331" fill="none" xmlns="http://www.w3.org/2000/svg">
<path id="Subtract" d="M32.0306 0.0180999C50.3114 -0.580796 65.6153 13.7566 66.2113 32.0386C66.8066 50.3203 52.4689 65.6224 34.1878 66.2154C15.9113 66.8076 0.613778 52.4734 0.0179104 34.1958C-0.577675 15.9182 13.7542 0.616887 32.0306 0.0180999ZM43.7396 35.3853C43.0541 38.3247 41.4031 40.7749 38.8226 42.3677C36.3643 43.8883 33.402 44.3671 30.5902 43.6978C27.7756 43.0232 25.3461 41.2552 23.8382 38.7847C23.1966 37.7368 22.7385 36.5873 22.4847 35.3853H5.08822C5.57657 42.4473 9.24093 49.3794 14.557 54.0093C20.2014 58.9403 27.5925 61.3919 35.0648 60.812C36.5966 60.694 38.1172 60.4534 39.6107 60.0913C43.7247 59.1539 47.9004 56.9233 51.0941 54.1939C56.6698 49.442 60.1495 42.6839 60.7796 35.3853L53.9027 35.3843L43.7396 35.3853ZM39.473 32.4107C39.0827 28.896 35.9135 26.3655 32.3997 26.7622C28.8947 27.158 26.3715 30.317 26.7611 33.8228C27.1506 37.3288 30.3056 39.8573 33.8119 39.4742C37.3269 39.0899 39.8634 35.9252 39.473 32.4107ZM39.429 6.0308C32.2017 4.39958 24.6224 5.70782 18.3597 9.66751C12.0766 13.6376 7.63238 19.9463 6.0101 27.1997C5.73939 28.4108 5.55123 29.639 5.44662 30.8755L22.4769 30.8785C23.1564 27.9423 24.7901 25.5073 27.3646 23.8999C29.8184 22.3698 32.7808 21.8808 35.596 22.5406C38.402 23.2039 40.8307 24.9527 42.349 27.4038C43.0084 28.4743 43.4826 29.649 43.7503 30.8775L53.8978 30.8765H61.1361C61.0699 29.7095 60.836 28.4236 60.5951 27.2769C58.4203 16.9267 49.8477 8.20287 39.429 6.0308Z" fill="black" fill-opacity="0.5"/>
</svg>
